{"title":"[ShepardTDS] Hyakka Ryōran Samurai Girls Season 1 Dual Audio Unc","uid":12618970,"size":2514878280,"categoryP":"video","categoryS":"tv_shows","magnet":"?xt=urn:btih:e1388b3ee389157b80e68ba5eae1ce11c5fec6cc&amp;dn=%5BShepardTDS%5D+Hyakka+Ry%C5%8Dran+Samurai+Girls+Season+1+Dual+Audio+Unc&amp;tr=udp%3A%2F%2Ftracker.leechers-paradise.org%3A6969&amp;tr=udp%3A%2F%2Fzer0day.ch%3A1337&amp;tr=udp%3A%2F%2Fopen.demonii.com%3A1337&amp;tr=udp%3A%2F%2Ftracker.coppersurfer.tk%3A6969&amp;tr=udp%3A%2F%2Fexodus.desync.com%3A6969","seeders":1,"leechers":0,"uploader":"ShepardTDS","files":12,"time":1445563760,"description":"Constant Quality encoding.\r\nVariable Bit rates\r\n\r\nGeneral\r\nFormat : Matroska\r\nFile size : 168 MiB-239 MiB\r\nDuration : 23mn 42s\r\nOverall bit rate : 992 Kbps-1,245 kbps\r\nEncoded date : UTC 2015-10-17 06:11:38\r\nWriting application : mkvmerge v7.7.0 ('Six Voices') 32bit built on Feb 28 2015 23:23:00\r\nWriting library : libebml v1.3.1 + libmatroska v1.4.2\r\n\r\nVideo\r\nID : 1\r\nFormat : V_MPEGH/ISO/HEVC\r\nCodec ID : V_MPEGH/ISO/HEVC\r\nDuration : 23mn 42s\r\nBit rate : 588 Kbps-836 Kbps\r\nWidth : 1 280 pixels\r\nHeight : 720 pixels\r\nDisplay aspect ratio : 16:9\r\nFrame rate : 23.976 fps\r\nBits/(Pixel*Frame) : 0.027\r\nStream size : 99.7 MiB (59%)\r\n\r\nAudio #1\r\nID : 2\r\nFormat : AC-3\r\nFormat/Info : Audio Coding 3\r\nMode extension : CM (complete main)\r\nCodec ID : A_AC3\r\nDuration : 23mn 42s\r\nBit rate mode : Constant\r\nBit rate : 192 Kbps\r\nChannel(s) : 2 channels\r\nChannel positions : Front: L R\r\nSampling rate : 48.0 KHz\r\nBit depth : 16 bits\r\nCompression mode : Lossy\r\nStream size : 32.5 MiB (19%)\r\nLanguage : English\r\n\r\nAudio #2\r\nID : 3\r\nFormat : AC-3\r\nFormat/Info : Audio Coding 3\r\nMode extension : CM (complete main)\r\nCodec ID : A_AC3\r\nDuration : 23mn 42s\r\nBit rate mode : Constant\r\nBit rate : 192 Kbps\r\nChannel(s) : 2 channels\r\nChannel positions : Front: L R\r\nSampling rate : 48.0 KHz\r\nBit depth : 16 bits\r\nCompression mode : Lossy\r\nStream size : 32.5 MiB (19%)\r\nLanguage : Japanese\r\n\r\nText #1\r\nID : 4\r\nFormat : ASS\r\nCodec ID : S_TEXT/ASS\r\nCodec ID/Info : Advanced Sub Station Alpha\r\nCompression mode : Lossless\r\nTitle : Signs/Songs\r\nLanguage : English\r\n\r\nText #2\r\nID : 5\r\nFormat : ASS\r\nCodec ID : S_TEXT/ASS\r\nCodec ID/Info : Advanced Sub Station Alpha\r\nCompression mode : Lossless\r\nTitle : Dialogue\r\nLanguage : Japanese\r\n\r\nMenu\r\n00:00:00.000 : en:Intro\r\n00:01:30.007 : en:Opening\r\n00:03:00.055 : en:Episode 10\r\n00:21:40.049 : en:Ending\r\n00:23:10.014 : en:Preview","torrent":{"xt":"urn:btih:e1388b3ee389157b80e68ba5eae1ce11c5fec6cc","amp;dn":"%5BShepardTDS%5D+Hyakka+Ry%C5%8Dran+Samurai+Girls+Season+1+Dual+Audio+Unc","amp;tr":["udp%3A%2F%2Ftracker.leechers-paradise.org%3A6969","udp%3A%2F%2Fzer0day.ch%3A1337","udp%3A%2F%2Fopen.demonii.com%3A1337","udp%3A%2F%2Ftracker.coppersurfer.tk%3A6969","udp%3A%2F%2Fexodus.desync.com%3A6969"],"infoHash":"e1388b3ee389157b80e68ba5eae1ce11c5fec6cc","infoHashBuffer":{"type":"Buffer","data":[225,56,139,62,227,137,21,123,128,230,139,165,234,225,206,17,197,254,198,204]},"announce":[],"urlList":[]}}